<svg width="15" height="15" viewBox="0 0 15 15" fill="none" xmlns="http://www.w3.org/2000/svg">
<path d="M7.50167 3.69469C5.3734 3.69469 3.65672 5.3269 3.65672 7.35046C3.65672 9.37402 5.3734 11.0062 7.50167 11.0062C9.62995 11.0062 11.3466 9.37402 11.3466 7.35046C11.3466 5.3269 9.62995 3.69469 7.50167 3.69469ZM7.50167 9.72719C6.12633 9.72719 5.00195 8.66132 5.00195 7.35046C5.00195 6.0396 6.12298 4.97373 7.50167 4.97373C8.88037 4.97373 10.0014 6.0396 10.0014 7.35046C10.0014 8.66132 8.87702 9.72719 7.50167 9.72719ZM12.4007 3.54515C12.4007 4.01922 11.9992 4.39784 11.5039 4.39784C11.0053 4.39784 10.6071 4.01604 10.6071 3.54515C10.6071 3.07426 11.0086 2.69245 11.5039 2.69245C11.9992 2.69245 12.4007 3.07426 12.4007 3.54515ZM14.9473 4.41057C14.8904 3.26834 14.616 2.25656 13.7359 1.42296C12.8592 0.589351 11.795 0.328452 10.5937 0.271181C9.35555 0.204365 5.64445 0.204365 4.4063 0.271181C3.20831 0.32527 2.14417 0.586169 1.26408 1.41977C0.383993 2.25338 0.112939 3.26516 0.052705 4.40739C-0.0175683 5.58462 -0.0175683 9.11312 0.052705 10.2903C0.109593 11.4326 0.383993 12.4444 1.26408 13.278C2.14417 14.1116 3.20496 14.3725 4.4063 14.4297C5.64445 14.4966 9.35555 14.4966 10.5937 14.4297C11.795 14.3757 12.8592 14.1148 13.7359 13.278C14.6127 12.4444 14.8871 11.4326 14.9473 10.2903C15.0176 9.11312 15.0176 5.5878 14.9473 4.41057ZM13.3477 11.5535C13.0867 12.1771 12.5814 12.6575 11.9222 12.9089C10.935 13.2811 8.59258 13.1952 7.50167 13.1952C6.41076 13.1952 4.06497 13.278 3.08115 12.9089C2.42526 12.6607 1.91997 12.1803 1.65561 11.5535C1.26408 10.6149 1.35443 8.38769 1.35443 7.35046C1.35443 6.31323 1.26743 4.08286 1.65561 3.14744C1.91662 2.52382 2.42192 2.04339 3.08115 1.79203C4.06832 1.41977 6.41076 1.50568 7.50167 1.50568C8.59258 1.50568 10.9384 1.42296 11.9222 1.79203C12.5781 2.04021 13.0834 2.52064 13.3477 3.14744C13.7393 4.08604 13.6489 6.31323 13.6489 7.35046C13.6489 8.38769 13.7393 10.6181 13.3477 11.5535Z" fill="#626880"/>
</svg>
