<svg width="11" height="15" viewBox="0 0 11 15" fill="none" xmlns="http://www.w3.org/2000/svg">
<path d="M4.76173 10.5656C3.59888 10.4444 2.5504 10.158 1.65273 9.45589C1.54135 9.36854 1.42635 9.28434 1.32471 9.18678C0.931801 8.80943 0.892212 8.37725 1.20311 7.93187C1.46908 7.55075 1.91556 7.44879 2.37963 7.66763C2.46949 7.71005 2.55511 7.76299 2.63711 7.81986C4.31007 8.96935 6.60827 9.00109 8.28751 7.87154C8.45388 7.74398 8.63171 7.63998 8.83783 7.58688C9.23859 7.48398 9.61233 7.63118 9.8274 7.98183C10.0731 8.38227 10.07 8.77314 9.76723 9.08404C9.30284 9.56068 8.74435 9.90551 8.12381 10.1462C7.53704 10.3737 6.89435 10.4882 6.25826 10.5642C6.35424 10.6687 6.39949 10.7201 6.4595 10.7804C7.32323 11.6482 8.19073 12.5124 9.05164 13.3829C9.34494 13.6795 9.40621 14.0473 9.24471 14.3923C9.06814 14.7693 8.67287 15.0174 8.28531 14.9908C8.03976 14.9738 7.84826 14.8516 7.67812 14.6802C7.02631 14.0243 6.36226 13.3805 5.72365 12.7122C5.5378 12.5179 5.44841 12.5547 5.2844 12.7234C4.62866 13.3985 3.96225 14.0631 3.29191 14.7241C2.9909 15.0208 2.63272 15.0742 2.28364 14.9047C1.91257 14.7248 1.67645 14.3461 1.69468 13.9654C1.70724 13.7079 1.83387 13.5112 2.0106 13.3348C2.86538 12.4813 3.7178 11.6256 4.57054 10.7707C4.62694 10.7138 4.67956 10.6535 4.76173 10.5656Z" fill="#626880"/>
<path d="M5.47008 7.59247C3.39558 7.5854 1.69451 5.86563 1.70661 3.78784C1.71855 1.6871 3.42072 -0.00579775 5.51564 1.49239e-05C7.6148 0.0056705 9.29969 1.72292 9.28916 3.84549C9.27848 5.91905 7.56562 7.59969 5.47008 7.59247ZM7.35542 3.79286C7.35181 2.76119 6.53018 1.93988 5.50055 1.93893C4.46229 1.93783 3.63327 2.77407 3.64128 3.81517C3.64898 4.84292 4.47768 5.65842 5.51014 5.65465C6.53945 5.65103 7.35888 4.82438 7.35542 3.79286Z" fill="#626880"/>
</svg>
