<svg width="23" height="13" viewBox="0 0 23 13" fill="none" xmlns="http://www.w3.org/2000/svg">
<path d="M22.4758 1.00963C22.6338 0.526912 22.4758 0.171631 21.7158 0.171631H19.2009C18.5605 0.171631 18.2659 0.476709 18.1079 0.816544C18.1079 0.816544 16.827 3.63949 15.0166 5.46996C14.4317 5.99902 14.1627 6.16893 13.8424 6.16893C13.6845 6.16893 13.4411 5.99902 13.4411 5.5163V1.00963C13.4411 0.430368 13.2618 0.171631 12.7323 0.171631H8.77855C8.37719 0.171631 8.13809 0.441954 8.13809 0.692968C8.13809 1.24134 9.04327 1.36877 9.13721 2.91348V6.26548C9.13721 6.99921 8.99203 7.13437 8.67181 7.13437C7.81786 7.13437 5.74278 4.29985 4.5131 1.05597C4.26545 0.426507 4.02208 0.171631 3.37735 0.171631H0.862484C0.145171 0.171631 1.62877e-08 0.476709 1.62877e-08 0.816544C1.62877e-08 1.41898 0.853944 4.41184 3.97511 8.36627C6.05447 11.0656 8.98349 12.5292 11.6478 12.5292C13.2489 12.5292 13.4454 12.2049 13.4454 11.6449C13.4454 9.06525 13.3002 8.82196 14.1029 8.82196C14.4744 8.82196 15.1148 8.99188 16.6092 10.2933C18.3171 11.838 18.5989 12.5292 19.5553 12.5292H22.0702C22.7875 12.5292 23.1504 12.2049 22.9412 11.5638C22.463 10.2161 19.2308 7.44331 19.0857 7.25795C18.7142 6.82543 18.8209 6.63235 19.0857 6.24617C19.0899 6.24231 22.1599 2.33421 22.4758 1.00963Z" fill="#626880"/>
</svg>
